<svg xmlns="http://www.w3.org/2000/svg" viewBox="0 0 512 512">
    
    <defs>
      <linearGradient id="bg_durian" x1="0" y1="0" x2="1" y2="1">
        <stop offset="0%" stop-color="#30E8E1"/><stop offset="100%" stop-color="#469EF5"/>
      </linearGradient>
      <radialGradient id="holo_durian" cx="30%" cy="20%" r="80%">
        <stop offset="0%" stop-color="white" stop-opacity="0.4"/>
        <stop offset="100%" stop-color="white" stop-opacity="0"/>
      </radialGradient>
      <filter id="ds_durian" x="-50%" y="-50%" width="200%" height="200%">
        <feDropShadow dx="0" dy="10" stdDeviation="12" flood-opacity="0.35"/>
      </filter>
      <filter id="spec_durian" x="-20%" y="-20%" width="140%" height="140%">
        <feGaussianBlur in="SourceAlpha" stdDeviation="2" result="b"/>
        <feSpecularLighting in="b" surfaceScale="5" specularConstant="0.9" specularExponent="22" lighting-color="white" result="s">
          <fePointLight x="-160" y="-220" z="320"/>
        </feSpecularLighting>
        <feComposite in="s" in2="SourceGraphic" operator="in" result="sp"/>
        <feMerge><feMergeNode in="SourceGraphic"/><feMergeNode in="sp"/></feMerge>
      </filter>
      <filter id="grain_durian" x="-10%" y="-10%" width="120%" height="120%">
        <feTurbulence type="fractalNoise" baseFrequency="1.25" numOctaves="2" stitchTiles="stitch"/>
        <feColorMatrix type="saturate" values="0"/>
        <feComponentTransfer><feFuncA type="linear" slope="0.03"/></feComponentTransfer>
        <feBlend in="SourceGraphic" mode="overlay"/>
      </filter>
      <linearGradient id="chrome_durian" x1="0" y1="0" x2="1" y2="1">
        <stop offset="0%" stop-color="#f5f5f5"/><stop offset="25%" stop-color="#bdbdbd"/>
        <stop offset="50%" stop-color="#ffffff"/><stop offset="75%" stop-color="#a3a3a3"/>
        <stop offset="100%" stop-color="#f5f5f5"/>
      </linearGradient>
      <linearGradient id="gold_durian" x1="0" y1="0" x2="1" y2="1">
        <stop offset="0%" stop-color="#FFF4C2"/><stop offset="22%" stop-color="#FFD766"/>
        <stop offset="50%" stop-color="#FFBF2A"/><stop offset="78%" stop-color="#FFD766"/>
        <stop offset="100%" stop-color="#FFF4C2"/>
      </linearGradient>
      <linearGradient id="holoEdge_durian" x1="0" y1="0" x2="1" y2="0">
        <stop offset="0%" stop-color="#FF8AE2"/><stop offset="50%" stop-color="#7AF3FF"/><stop offset="100%" stop-color="#FFE67A"/>
      </linearGradient>
    </defs>
    <g filter="url(#ds_durian)">
      <path d="M84 64h344a48 48 0 0 1 48 48v288a48 48 0 0 1-48 48H84a48 48 0 0 1-48-48V112a48 48 0 0 1 48-48z"
            fill="url(#bg_durian)"/>
      <path d="M84 64h344a48 48 0 0 1 48 48v288a48 48 0 0 1-48 48H84a48 48 0 0 1-48-48V112a48 48 0 0 1 48-48z"
            fill="url(#holo_durian)"/>
      <path d="M84 64h344a48 48 0 0 1 48 48v288a48 48 0 0 1-48 48H84a48 48 0 0 1-48-48V112a48 48 0 0 1 48-48z"
            fill="none" stroke="url(#holoEdge_durian)" stroke-width="8"/>
    </g>
    <g>
      <rect x="156" y="410" width="200" height="44" rx="14" fill="rgba(255,255,255,0.95)"/>
      <text x="256" y="438" text-anchor="middle" font-family="Inter, ui-sans-serif, system-ui" font-weight="800" font-size="22" fill="#0B1220">Durian</text>
    </g>
    
    <g filter="url(#spec_durian)">
          <radialGradient id="dur_durian" cx="50%" cy="40%" r="60%">
            <stop offset="0%" stop-color="#E6EFC2"/><stop offset="100%" stop-color="#8DAA46"/>
          </radialGradient>
          <circle cx="256" cy="256" r="100" fill="url(#dur_durian)"/>
          <path d="M348.0 256.0l12.0 0.0" stroke="#4E5A1F" stroke-width="3"/><path d="M340.7 291.8l11.1 4.7" stroke="#4E5A1F" stroke-width="3"/><path d="M320.1 322.0l8.4 8.6" stroke="#4E5A1F" stroke-width="3"/><path d="M289.3 341.7l4.3 11.2" stroke="#4E5A1F" stroke-width="3"/><path d="M253.3 348.0l-0.4 12.0" stroke="#4E5A1F" stroke-width="3"/><path d="M217.7 339.7l-5.0 10.9" stroke="#4E5A1F" stroke-width="3"/><path d="M188.2 318.1l-8.8 8.1" stroke="#4E5A1F" stroke-width="3"/><path d="M169.3 286.8l-11.3 4.0" stroke="#4E5A1F" stroke-width="3"/><path d="M164.2 250.6l-12.0 -0.7" stroke="#4E5A1F" stroke-width="3"/><path d="M173.5 215.3l-10.8 -5.3" stroke="#4E5A1F" stroke-width="3"/><path d="M195.9 186.4l-7.8 -9.1" stroke="#4E5A1F" stroke-width="3"/><path d="M227.7 168.5l-3.7 -11.4" stroke="#4E5A1F" stroke-width="3"/><path d="M264.0 164.4l1.0 -12.0" stroke="#4E5A1F" stroke-width="3"/><path d="M299.1 174.7l5.6 -10.6" stroke="#4E5A1F" stroke-width="3"/><path d="M327.4 197.9l9.3 -7.6" stroke="#4E5A1F" stroke-width="3"/><path d="M344.3 230.3l11.5 -3.4" stroke="#4E5A1F" stroke-width="3"/>
        </g>
    
    </svg>