<svg xmlns="http://www.w3.org/2000/svg" viewBox="0 0 512 512">
    
    <defs>
      <linearGradient id="bg_kiwi" x1="0" y1="0" x2="1" y2="1">
        <stop offset="0%" stop-color="#52E830"/><stop offset="100%" stop-color="#46F583"/>
      </linearGradient>
      <radialGradient id="holo_kiwi" cx="30%" cy="20%" r="80%">
        <stop offset="0%" stop-color="white" stop-opacity="0.4"/>
        <stop offset="100%" stop-color="white" stop-opacity="0"/>
      </radialGradient>
      <filter id="ds_kiwi" x="-50%" y="-50%" width="200%" height="200%">
        <feDropShadow dx="0" dy="10" stdDeviation="12" flood-opacity="0.35"/>
      </filter>
      <filter id="spec_kiwi" x="-20%" y="-20%" width="140%" height="140%">
        <feGaussianBlur in="SourceAlpha" stdDeviation="2" result="b"/>
        <feSpecularLighting in="b" surfaceScale="5" specularConstant="0.9" specularExponent="22" lighting-color="white" result="s">
          <fePointLight x="-160" y="-220" z="320"/>
        </feSpecularLighting>
        <feComposite in="s" in2="SourceGraphic" operator="in" result="sp"/>
        <feMerge><feMergeNode in="SourceGraphic"/><feMergeNode in="sp"/></feMerge>
      </filter>
      <filter id="grain_kiwi" x="-10%" y="-10%" width="120%" height="120%">
        <feTurbulence type="fractalNoise" baseFrequency="1.25" numOctaves="2" stitchTiles="stitch"/>
        <feColorMatrix type="saturate" values="0"/>
        <feComponentTransfer><feFuncA type="linear" slope="0.03"/></feComponentTransfer>
        <feBlend in="SourceGraphic" mode="overlay"/>
      </filter>
      <linearGradient id="chrome_kiwi" x1="0" y1="0" x2="1" y2="1">
        <stop offset="0%" stop-color="#f5f5f5"/><stop offset="25%" stop-color="#bdbdbd"/>
        <stop offset="50%" stop-color="#ffffff"/><stop offset="75%" stop-color="#a3a3a3"/>
        <stop offset="100%" stop-color="#f5f5f5"/>
      </linearGradient>
      <linearGradient id="gold_kiwi" x1="0" y1="0" x2="1" y2="1">
        <stop offset="0%" stop-color="#FFF4C2"/><stop offset="22%" stop-color="#FFD766"/>
        <stop offset="50%" stop-color="#FFBF2A"/><stop offset="78%" stop-color="#FFD766"/>
        <stop offset="100%" stop-color="#FFF4C2"/>
      </linearGradient>
      <linearGradient id="holoEdge_kiwi" x1="0" y1="0" x2="1" y2="0">
        <stop offset="0%" stop-color="#FF8AE2"/><stop offset="50%" stop-color="#7AF3FF"/><stop offset="100%" stop-color="#FFE67A"/>
      </linearGradient>
    </defs>
    <g filter="url(#ds_kiwi)">
      <path d="M84 64h344a48 48 0 0 1 48 48v288a48 48 0 0 1-48 48H84a48 48 0 0 1-48-48V112a48 48 0 0 1 48-48z"
            fill="url(#bg_kiwi)"/>
      <path d="M84 64h344a48 48 0 0 1 48 48v288a48 48 0 0 1-48 48H84a48 48 0 0 1-48-48V112a48 48 0 0 1 48-48z"
            fill="url(#holo_kiwi)"/>
      <path d="M84 64h344a48 48 0 0 1 48 48v288a48 48 0 0 1-48 48H84a48 48 0 0 1-48-48V112a48 48 0 0 1 48-48z"
            fill="none" stroke="url(#holoEdge_kiwi)" stroke-width="8"/>
    </g>
    <g>
      <rect x="156" y="410" width="200" height="44" rx="14" fill="rgba(255,255,255,0.95)"/>
      <text x="256" y="438" text-anchor="middle" font-family="Inter, ui-sans-serif, system-ui" font-weight="800" font-size="22" fill="#0B1220">Kiwi</text>
    </g>
    
    <g filter="url(#spec_kiwi)">
          <radialGradient id="kiwi_kiwi" cx="50%" cy="50%" r="60%">
            <stop offset="0%" stop-color="#D9FFB3"/><stop offset="100%" stop-color="#5EA137"/>
          </radialGradient>
          <circle cx="256" cy="256" r="96" fill="url(#kiwi_kiwi)"/>
          <g fill="#2D2D2D"><circle cx="256.0" cy="256" r="0"/><circle cx="256.0" cy="256" r="0"/><circle cx="256.0" cy="256" r="0"/><circle cx="256.0" cy="256" r="0"/><circle cx="256.0" cy="256" r="0"/><circle cx="256.0" cy="256" r="0"/><circle cx="256.0" cy="256" r="0"/><circle cx="256.0" cy="256" r="0"/><circle cx="256.0" cy="256" r="0"/><circle cx="256.0" cy="256" r="0"/><circle cx="256.0" cy="256" r="0"/><circle cx="256.0" cy="256" r="0"/><circle cx="256.0" cy="256" r="0"/><circle cx="256.0" cy="256" r="0"/><circle cx="256.0" cy="256" r="0"/><circle cx="256.0" cy="256" r="0"/><circle cx="256.0" cy="256" r="0"/><circle cx="256.0" cy="256" r="0"/></g>
          <circle cx="296" cy="256" r="3" fill="#2D2D2D"/><circle cx="294" cy="266" r="3" fill="#2D2D2D"/><circle cx="290" cy="275" r="3" fill="#2D2D2D"/><circle cx="284" cy="284" r="3" fill="#2D2D2D"/><circle cx="276" cy="290" r="3" fill="#2D2D2D"/><circle cx="266" cy="294" r="3" fill="#2D2D2D"/><circle cx="256" cy="295" r="3" fill="#2D2D2D"/><circle cx="246" cy="294" r="3" fill="#2D2D2D"/><circle cx="237" cy="290" r="3" fill="#2D2D2D"/><circle cx="228" cy="284" r="3" fill="#2D2D2D"/><circle cx="222" cy="276" r="3" fill="#2D2D2D"/><circle cx="218" cy="266" r="3" fill="#2D2D2D"/><circle cx="217" cy="256" r="3" fill="#2D2D2D"/><circle cx="218" cy="246" r="3" fill="#2D2D2D"/><circle cx="222" cy="237" r="3" fill="#2D2D2D"/><circle cx="228" cy="228" r="3" fill="#2D2D2D"/><circle cx="236" cy="222" r="3" fill="#2D2D2D"/><circle cx="246" cy="218" r="3" fill="#2D2D2D"/><circle cx="256" cy="217" r="3" fill="#2D2D2D"/><circle cx="266" cy="218" r="3" fill="#2D2D2D"/><circle cx="275" cy="222" r="3" fill="#2D2D2D"/><circle cx="284" cy="228" r="3" fill="#2D2D2D"/><circle cx="290" cy="236" r="3" fill="#2D2D2D"/><circle cx="294" cy="246" r="3" fill="#2D2D2D"/>
        </g>
    
    </svg>