<svg xmlns="http://www.w3.org/2000/svg" viewBox="0 0 512 512">
    
    <defs>
      <linearGradient id="bg_quince" x1="0" y1="0" x2="1" y2="1">
        <stop offset="0%" stop-color="#8030E8"/><stop offset="100%" stop-color="#EF46F5"/>
      </linearGradient>
      <radialGradient id="holo_quince" cx="30%" cy="20%" r="80%">
        <stop offset="0%" stop-color="white" stop-opacity="0.4"/>
        <stop offset="100%" stop-color="white" stop-opacity="0"/>
      </radialGradient>
      <filter id="ds_quince" x="-50%" y="-50%" width="200%" height="200%">
        <feDropShadow dx="0" dy="10" stdDeviation="12" flood-opacity="0.35"/>
      </filter>
      <filter id="spec_quince" x="-20%" y="-20%" width="140%" height="140%">
        <feGaussianBlur in="SourceAlpha" stdDeviation="2" result="b"/>
        <feSpecularLighting in="b" surfaceScale="5" specularConstant="0.9" specularExponent="22" lighting-color="white" result="s">
          <fePointLight x="-160" y="-220" z="320"/>
        </feSpecularLighting>
        <feComposite in="s" in2="SourceGraphic" operator="in" result="sp"/>
        <feMerge><feMergeNode in="SourceGraphic"/><feMergeNode in="sp"/></feMerge>
      </filter>
      <filter id="grain_quince" x="-10%" y="-10%" width="120%" height="120%">
        <feTurbulence type="fractalNoise" baseFrequency="1.25" numOctaves="2" stitchTiles="stitch"/>
        <feColorMatrix type="saturate" values="0"/>
        <feComponentTransfer><feFuncA type="linear" slope="0.03"/></feComponentTransfer>
        <feBlend in="SourceGraphic" mode="overlay"/>
      </filter>
      <linearGradient id="chrome_quince" x1="0" y1="0" x2="1" y2="1">
        <stop offset="0%" stop-color="#f5f5f5"/><stop offset="25%" stop-color="#bdbdbd"/>
        <stop offset="50%" stop-color="#ffffff"/><stop offset="75%" stop-color="#a3a3a3"/>
        <stop offset="100%" stop-color="#f5f5f5"/>
      </linearGradient>
      <linearGradient id="gold_quince" x1="0" y1="0" x2="1" y2="1">
        <stop offset="0%" stop-color="#FFF4C2"/><stop offset="22%" stop-color="#FFD766"/>
        <stop offset="50%" stop-color="#FFBF2A"/><stop offset="78%" stop-color="#FFD766"/>
        <stop offset="100%" stop-color="#FFF4C2"/>
      </linearGradient>
      <linearGradient id="holoEdge_quince" x1="0" y1="0" x2="1" y2="0">
        <stop offset="0%" stop-color="#FF8AE2"/><stop offset="50%" stop-color="#7AF3FF"/><stop offset="100%" stop-color="#FFE67A"/>
      </linearGradient>
    </defs>
    <g filter="url(#ds_quince)">
      <path d="M84 64h344a48 48 0 0 1 48 48v288a48 48 0 0 1-48 48H84a48 48 0 0 1-48-48V112a48 48 0 0 1 48-48z"
            fill="url(#bg_quince)"/>
      <path d="M84 64h344a48 48 0 0 1 48 48v288a48 48 0 0 1-48 48H84a48 48 0 0 1-48-48V112a48 48 0 0 1 48-48z"
            fill="url(#holo_quince)"/>
      <path d="M84 64h344a48 48 0 0 1 48 48v288a48 48 0 0 1-48 48H84a48 48 0 0 1-48-48V112a48 48 0 0 1 48-48z"
            fill="none" stroke="url(#holoEdge_quince)" stroke-width="8"/>
    </g>
    <g>
      <rect x="156" y="410" width="200" height="44" rx="14" fill="rgba(255,255,255,0.95)"/>
      <text x="256" y="438" text-anchor="middle" font-family="Inter, ui-sans-serif, system-ui" font-weight="800" font-size="22" fill="#0B1220">Quince</text>
    </g>
    
    <g filter="url(#spec_quince)">
          <radialGradient id="quince_quince" cx="40%" cy="30%" r="70%">
            <stop offset="0%" stop-color="#fff" stop-opacity="0.5"/><stop offset="100%" stop-color="#D9B84E"/>
          </radialGradient>
          <path d="M256 180c-56 0-94 38-94 90 0 52 42 94 94 116 52-22 94-64 94-116 0-52-38-90-94-90z" fill="url(#quince_quince)"/>
        </g>
    
    </svg>